<svg viewBox="0 0 256 384" version="1.1" xmlns="http://www.w3.org/2000/svg"><path fill="#000000"  stroke="none" opacity="1" d="M 130.5 126 L 138 128 L 140.5 132 L 144.5 131 L 150 135.5 L 152.5 139 L 156.5 138 L 160 140.5 L 161 144 L 163.5 145 L 167.5 144 L 180.5 153 L 187.5 154 L 192 158.5 Q 191.3 160.8 193.5 160 L 204.5 166 L 207.5 166 L 208.5 165 L 216.5 165 L 219 166 L 224.5 174 L 233.5 180 L 241.5 178 L 244 179 L 244 181 Q 246.7 179.9 246 182.5 L 252.5 190 L 256 191 L 256 384 L 0 384 L 0 191.5 L 1.5 191 L 5.5 186 L 20 173.5 L 27.5 165 L 35.5 160 L 46.5 158 L 61.5 153 L 70.5 147 Q 75.3 144.8 83.5 146 L 88.5 147 L 99.5 138 L 105.5 136 L 108 137 L 109.5 134 L 115.5 131 L 120.5 131 L 130.5 126 Z "/></svg>